name rise35.5848peak51.9257fall54.8793.mot
datacolumns 19
datarows 15
range 21.16657800000000 21.18991600000000
endheader
time	ground_force1_vx	ground_force1_vy	ground_force1_vz	ground_force1_px	ground_force1_py	ground_force1_pz	ground_force2_vx	ground_force2_vy	ground_force2_vz	ground_force2_px	ground_force2_py	ground_force2_pz	ground_torque1_x	ground_torque1_y	ground_torque1_z	ground_torque2_x	ground_torque2_y	ground_torque2_z	
21.16657800000000	62.17046400000000	778.38239699999997	58.53373600000000	0.30658200000000	0.00000000000000	0.11790300000000	0.00000000000000	0.00000000000000	0.00000000000000	0.00000000000000	0.00000000000000	0.00000000000000	0.00000000000000	20.39340100000000	0.00000000000000	0.00000000000000	0.00000000000000	0.00000000000000	
21.16825100000000	61.39059400000000	780.07217400000002	58.61110500000000	0.30556800000000	0.00000000000000	0.11794600000000	0.00000000000000	0.00000000000000	0.00000000000000	0.00000000000000	0.00000000000000	0.00000000000000	0.00000000000000	20.49059900000000	0.00000000000000	0.00000000000000	0.00000000000000	0.00000000000000	
21.16991600000000	60.61226700000000	781.62204999999994	58.67605000000000	0.30457900000000	0.00000000000000	0.11798700000000	0.00000000000000	0.00000000000000	0.00000000000000	0.00000000000000	0.00000000000000	0.00000000000000	0.00000000000000	20.58270000000000	0.00000000000000	0.00000000000000	0.00000000000000	0.00000000000000	
21.17157900000000	59.83645800000000	783.03198499999996	58.72868400000000	0.30361300000000	0.00000000000000	0.11802600000000	0.00000000000000	0.00000000000000	0.00000000000000	0.00000000000000	0.00000000000000	0.00000000000000	0.00000000000000	20.66959400000000	0.00000000000000	0.00000000000000	0.00000000000000	0.00000000000000	
21.17324700000000	59.06407200000000	784.30212100000006	58.76910700000000	0.30267000000000	0.00000000000000	0.11806300000000	0.00000000000000	0.00000000000000	0.00000000000000	0.00000000000000	0.00000000000000	0.00000000000000	0.00000000000000	20.75116300000000	0.00000000000000	0.00000000000000	0.00000000000000	0.00000000000000	
21.17491600000000	58.29593800000000	785.43279099999995	58.79740400000000	0.30174700000000	0.00000000000000	0.11809900000000	0.00000000000000	0.00000000000000	0.00000000000000	0.00000000000000	0.00000000000000	0.00000000000000	0.00000000000000	20.82728000000000	0.00000000000000	0.00000000000000	0.00000000000000	0.00000000000000	
21.17657900000000	57.53281600000000	786.42452600000001	58.81365000000000	0.30084500000000	0.00000000000000	0.11813300000000	0.00000000000000	0.00000000000000	0.00000000000000	0.00000000000000	0.00000000000000	0.00000000000000	0.00000000000000	20.89781100000000	0.00000000000000	0.00000000000000	0.00000000000000	0.00000000000000	
21.17824300000000	56.77539900000000	787.27805799999999	58.81791000000000	0.29996100000000	0.00000000000000	0.11816500000000	0.00000000000000	0.00000000000000	0.00000000000000	0.00000000000000	0.00000000000000	0.00000000000000	0.00000000000000	20.96261800000000	0.00000000000000	0.00000000000000	0.00000000000000	0.00000000000000	
21.17991900000000	56.02430900000000	787.99432999999999	58.81024400000000	0.29909400000000	0.00000000000000	0.11819600000000	0.00000000000000	0.00000000000000	0.00000000000000	0.00000000000000	0.00000000000000	0.00000000000000	0.00000000000000	21.02155900000000	0.00000000000000	0.00000000000000	0.00000000000000	0.00000000000000	
21.18158400000000	55.28010600000000	788.57449499999996	58.79070700000000	0.29824300000000	0.00000000000000	0.11822600000000	0.00000000000000	0.00000000000000	0.00000000000000	0.00000000000000	0.00000000000000	0.00000000000000	0.00000000000000	21.07449400000000	0.00000000000000	0.00000000000000	0.00000000000000	0.00000000000000	
21.18325200000000	54.54328700000000	789.01992199999995	58.75935200000000	0.29740700000000	0.00000000000000	0.11825400000000	0.00000000000000	0.00000000000000	0.00000000000000	0.00000000000000	0.00000000000000	0.00000000000000	0.00000000000000	21.12128200000000	0.00000000000000	0.00000000000000	0.00000000000000	0.00000000000000	
21.18491900000000	53.81428600000000	789.33219499999996	58.71623600000000	0.29658300000000	0.00000000000000	0.11828000000000	0.00000000000000	0.00000000000000	0.00000000000000	0.00000000000000	0.00000000000000	0.00000000000000	0.00000000000000	21.16178700000000	0.00000000000000	0.00000000000000	0.00000000000000	0.00000000000000	
21.18657900000000	53.09348400000000	789.51311699999997	58.66141600000000	0.29577000000000	0.00000000000000	0.11830500000000	0.00000000000000	0.00000000000000	0.00000000000000	0.00000000000000	0.00000000000000	0.00000000000000	0.00000000000000	21.19587700000000	0.00000000000000	0.00000000000000	0.00000000000000	0.00000000000000	
21.18824500000000	52.38120400000000	789.56470800000000	58.59495800000000	0.29496600000000	0.00000000000000	0.11832900000000	0.00000000000000	0.00000000000000	0.00000000000000	0.00000000000000	0.00000000000000	0.00000000000000	0.00000000000000	21.22342700000000	0.00000000000000	0.00000000000000	0.00000000000000	0.00000000000000	
21.18991600000000	51.67772000000000	789.48920299999997	58.51693400000000	0.29416900000000	0.00000000000000	0.11835100000000	0.00000000000000	0.00000000000000	0.00000000000000	0.00000000000000	0.00000000000000	0.00000000000000	0.00000000000000	21.24432100000000	0.00000000000000	0.00000000000000	0.00000000000000	0.00000000000000	
